<svg width="236" height="99" viewBox="0 0 236 99" fill="none" xmlns="http://www.w3.org/2000/svg">
<path d="M160.299 9.2356C167.947 4.25916 176.854 1.5636 185.977 1.46431C195.101 1.36502 204.064 3.86611 211.818 8.67492C219.572 13.4837 225.797 20.4014 229.763 28.6185C233.729 36.8356 235.273 46.0123 234.214 55.0748C233.155 64.1374 229.537 72.711 223.784 79.7924C218.03 86.8739 210.379 92.1704 201.725 95.0621C193.071 97.9538 183.773 98.3213 174.918 96.1214C166.063 93.9215 158.017 89.2452 151.723 82.6398" stroke="#111111" stroke-width="2.7064"/>
<path d="M111.113 63.6989C107.268 63.6989 103.978 62.9378 101.24 61.4154C98.5033 59.8777 96.4043 57.7403 94.9435 55.0031C93.4826 52.2506 92.7522 49.0598 92.7522 45.4308C92.7522 41.8017 93.4826 38.6186 94.9435 35.8815C96.4043 33.129 98.5033 30.9915 101.24 29.4692C103.978 27.9315 107.268 27.1626 111.113 27.1626C114.957 27.1626 118.248 27.9315 120.985 29.4692C123.722 30.9915 125.821 33.129 127.282 35.8815C128.743 38.6186 129.473 41.8017 129.473 45.4308C129.473 49.0598 128.743 52.2506 127.282 55.0031C125.821 57.7403 123.722 59.8777 120.985 61.4154C118.248 62.9378 114.957 63.6989 111.113 63.6989ZM111.205 54.2881C112.281 54.2881 113.212 53.9267 113.996 53.204C114.78 52.4812 115.388 51.451 115.818 50.1131C116.249 48.7753 116.464 47.1838 116.464 45.3385C116.464 43.4779 116.249 41.8863 115.818 40.5639C115.388 39.226 114.78 38.1958 113.996 37.473C113.212 36.7503 112.281 36.3889 111.205 36.3889C110.067 36.3889 109.091 36.7503 108.276 37.473C107.461 38.1958 106.838 39.226 106.407 40.5639C105.977 41.8863 105.761 43.4779 105.761 45.3385C105.761 47.1838 105.977 48.7753 106.407 50.1131C106.838 51.451 107.461 52.4812 108.276 53.204C109.091 53.9267 110.067 54.2881 111.205 54.2881ZM151.709 63.6989C147.864 63.6989 144.574 62.9378 141.836 61.4154C139.099 59.8777 137 57.7403 135.539 55.0031C134.079 52.2506 133.348 49.0598 133.348 45.4308C133.348 41.8017 134.079 38.6186 135.539 35.8815C137 33.129 139.099 30.9915 141.836 29.4692C144.574 27.9315 147.864 27.1626 151.709 27.1626C155.553 27.1626 158.844 27.9315 161.581 29.4692C164.318 30.9915 166.417 33.129 167.878 35.8815C169.339 38.6186 170.069 41.8017 170.069 45.4308C170.069 49.0598 169.339 52.2506 167.878 55.0031C166.417 57.7403 164.318 59.8777 161.581 61.4154C158.844 62.9378 155.553 63.6989 151.709 63.6989ZM151.801 54.2881C152.877 54.2881 153.808 53.9267 154.592 53.204C155.376 52.4812 155.983 51.451 156.414 50.1131C156.845 48.7753 157.06 47.1838 157.06 45.3385C157.06 43.4779 156.845 41.8863 156.414 40.5639C155.983 39.226 155.376 38.1958 154.592 37.473C153.808 36.7503 152.877 36.3889 151.801 36.3889C150.663 36.3889 149.686 36.7503 148.871 37.473C148.056 38.1958 147.434 39.226 147.003 40.5639C146.573 41.8863 146.357 43.4779 146.357 45.3385C146.357 47.1838 146.573 48.7753 147.003 50.1131C147.434 51.451 148.056 52.4812 148.871 53.204C149.686 53.9267 150.663 54.2881 151.801 54.2881ZM188.06 63.5144C185.539 63.5144 183.217 62.8532 181.095 61.5308C178.988 60.2083 177.296 58.2016 176.02 55.5106C174.759 52.8195 174.129 49.4289 174.129 45.3385C174.129 41.0636 174.79 37.5884 176.112 34.9127C177.45 32.2371 179.172 30.2765 181.279 29.0309C183.401 27.7854 185.631 27.1626 187.968 27.1626C189.721 27.1626 191.259 27.4701 192.581 28.0852C193.904 28.6849 195.011 29.4922 195.903 30.5071C196.795 31.5067 197.471 32.6061 197.933 33.8056H198.117V15.8142H210.85V63.0531H198.209V57.2405H197.933C197.441 58.4399 196.733 59.5163 195.811 60.4697C194.903 61.4077 193.796 62.1535 192.489 62.7071C191.197 63.2453 189.721 63.5144 188.06 63.5144ZM192.766 53.7345C193.935 53.7345 194.934 53.3962 195.764 52.7196C196.61 52.0276 197.256 51.0588 197.702 49.8133C198.163 48.5524 198.394 47.0608 198.394 45.3385C198.394 43.5855 198.163 42.0862 197.702 40.8407C197.256 39.5797 196.61 38.6186 195.764 37.9574C194.934 37.2808 193.935 36.9425 192.766 36.9425C191.597 36.9425 190.598 37.2808 189.767 37.9574C188.952 38.6186 188.322 39.5797 187.876 40.8407C187.445 42.0862 187.23 43.5855 187.23 45.3385C187.23 47.0915 187.445 48.5985 187.876 49.8594C188.322 51.105 188.952 52.0661 189.767 52.7427C190.598 53.4039 191.597 53.7345 192.766 53.7345Z" fill="#9616FF"/>
<path d="M97.3654 92.3299C96.2351 92.3299 95.2356 92.1454 94.3668 91.7763C93.5057 91.3996 92.8291 90.8306 92.337 90.0694C91.8449 89.3083 91.5989 88.3395 91.5989 87.1631C91.5989 86.1944 91.7642 85.3678 92.0948 84.6836C92.4254 83.9916 92.8868 83.4265 93.4788 82.9882C94.0708 82.55 94.7589 82.2155 95.5432 81.9848C96.3351 81.7542 97.1885 81.6043 98.1035 81.5351C99.0953 81.4582 99.8911 81.3659 100.491 81.2583C101.098 81.1429 101.536 80.9853 101.806 80.7854C102.075 80.5778 102.209 80.3049 102.209 79.9666V79.9204C102.209 79.4591 102.032 79.1055 101.679 78.8594C101.325 78.6134 100.871 78.4904 100.318 78.4904C99.7104 78.4904 99.2145 78.6249 98.8301 78.894C98.4533 79.1554 98.2265 79.5591 98.1496 80.105H92.2909C92.3678 79.0286 92.7099 78.0367 93.3173 77.1295C93.9324 76.2145 94.8281 75.4841 96.0045 74.9382C97.1808 74.3846 98.6494 74.1078 100.41 74.1078C101.679 74.1078 102.817 74.2578 103.824 74.5576C104.831 74.8498 105.688 75.2611 106.396 75.7917C107.103 76.3145 107.641 76.9296 108.01 77.6369C108.387 78.3366 108.575 79.0978 108.575 79.9204V92.0531H102.624V89.562H102.486C102.132 90.2232 101.702 90.7576 101.194 91.1651C100.695 91.5726 100.122 91.8686 99.4759 92.0531C98.8377 92.2376 98.1342 92.3299 97.3654 92.3299ZM99.4413 88.3164C99.9257 88.3164 100.379 88.2165 100.802 88.0166C101.233 87.8167 101.583 87.5283 101.852 87.1516C102.121 86.7749 102.255 86.3174 102.255 85.7792V84.303C102.086 84.3722 101.906 84.4375 101.713 84.499C101.529 84.5605 101.329 84.6182 101.114 84.672C100.906 84.7258 100.683 84.7758 100.445 84.8219C100.214 84.8681 99.9718 84.9104 99.7181 84.9488C99.226 85.0257 98.8224 85.1526 98.5071 85.3294C98.1996 85.4985 97.9689 85.71 97.8152 85.9637C97.6691 86.2097 97.596 86.4865 97.596 86.7941C97.596 87.2862 97.769 87.6629 98.115 87.9243C98.461 88.1857 98.9031 88.3164 99.4413 88.3164ZM122.181 74.3385V78.9517H110.51V74.3385H122.181ZM112.77 70.0944H119.137V86.3558C119.137 86.6019 119.179 86.8095 119.264 86.9786C119.348 87.1401 119.479 87.2631 119.656 87.3477C119.833 87.4245 120.059 87.463 120.336 87.463C120.528 87.463 120.751 87.4399 121.005 87.3938C121.266 87.3477 121.459 87.3092 121.582 87.2785L122.504 91.7532C122.22 91.8378 121.812 91.9416 121.282 92.0646C120.759 92.1877 120.136 92.2684 119.413 92.3068C117.953 92.3837 116.726 92.2338 115.734 91.857C114.743 91.4726 113.997 90.8691 113.497 90.0464C112.997 89.2237 112.755 88.1934 112.77 86.9555V70.0944ZM133.077 92.376C131.186 92.376 129.556 92.0147 128.187 91.2919C126.826 90.5615 125.777 89.5159 125.039 88.155C124.308 86.7864 123.943 85.1487 123.943 83.2419C123.943 81.412 124.312 79.8128 125.05 78.4442C125.788 77.0757 126.83 76.0108 128.176 75.2496C129.521 74.4884 131.109 74.1078 132.939 74.1078C134.277 74.1078 135.488 74.3154 136.572 74.7306C137.656 75.1458 138.582 75.7494 139.351 76.5413C140.12 77.3255 140.712 78.2789 141.127 79.4015C141.542 80.524 141.75 81.7888 141.75 83.1958V84.672H125.927V81.166H135.891C135.883 80.6586 135.753 80.2126 135.499 79.8282C135.253 79.4361 134.919 79.1324 134.496 78.9171C134.08 78.6941 133.608 78.5826 133.077 78.5826C132.562 78.5826 132.089 78.6941 131.659 78.9171C131.228 79.1324 130.882 79.4322 130.621 79.8167C130.367 80.2011 130.232 80.6509 130.217 81.166V84.9488C130.217 85.5178 130.336 86.0252 130.574 86.4712C130.813 86.9171 131.155 87.2669 131.601 87.5207C132.047 87.7744 132.585 87.9012 133.216 87.9012C133.654 87.9012 134.054 87.8397 134.415 87.7167C134.784 87.5937 135.099 87.4169 135.361 87.1862C135.622 86.9479 135.814 86.6634 135.937 86.3328H141.75C141.55 87.5629 141.077 88.6317 140.331 89.5389C139.586 90.4385 138.598 91.1382 137.367 91.6379C136.145 92.13 134.715 92.376 133.077 92.376Z" fill="black"/>
<path d="M8.31467 27.2349H31.9056L48.1329 66.7804H48.951L65.1783 27.2349H88.7692V97.0531H70.2238V56.6895H69.6783L54.1329 96.5076H42.951L27.4056 56.4167H26.8601V97.0531H8.31467V27.2349Z" fill="#111111"/>
<path d="M5.31467 24.2349H28.9056L45.1329 63.7804H45.951L62.1783 24.2349H85.7692V94.0531H67.2238V53.6895H66.6783L51.1329 93.5076H39.951L24.4056 53.4167H23.8601V94.0531H5.31467V24.2349Z" fill="#9616FF"/>
</svg>
