<svg width="382" height="565" viewBox="0 0 382 565" fill="none" xmlns="http://www.w3.org/2000/svg">
<path d="M191 473.149C296.486 473.149 382 423.775 382 362.87C382 301.964 296.486 252.591 191 252.591C85.5137 252.591 0.00012207 301.964 0.00012207 362.87C0.00012207 423.775 85.5137 473.149 191 473.149Z" fill="#F5F5F5"/>
<path d="M266.17 326.64L330.504 363.776C331.314 364.247 332.235 364.495 333.172 364.495C334.11 364.495 335.03 364.247 335.841 363.776L371.634 343.096C371.876 342.956 372.076 342.755 372.215 342.514C372.355 342.272 372.428 341.998 372.428 341.719C372.428 341.44 372.355 341.166 372.215 340.924C372.076 340.682 371.876 340.482 371.634 340.342L307.317 303.3C306.508 302.834 305.591 302.589 304.657 302.589C303.724 302.589 302.807 302.834 301.998 303.3L266.179 323.878C265.937 324.018 265.736 324.219 265.596 324.461C265.456 324.703 265.382 324.977 265.381 325.257C265.38 325.536 265.453 325.811 265.591 326.054C265.73 326.296 265.929 326.499 266.17 326.64Z" fill="#E0E0E0"/>
<path d="M215.546 312.828L60.8016 402.383C59.5415 403.115 58.1119 403.503 56.655 403.511C55.1981 403.518 53.7645 403.144 52.4969 402.426L12.299 379.676C11.8815 379.436 11.5346 379.09 11.2933 378.674C11.0521 378.257 10.925 377.784 10.925 377.303C10.925 376.821 11.0521 376.348 11.2933 375.931C11.5346 375.515 11.8815 375.169 12.299 374.929L166.753 285.724C168.01 285.002 169.432 284.617 170.882 284.608C172.331 284.6 173.758 284.966 175.024 285.673L215.512 308.363C215.909 308.584 216.24 308.906 216.471 309.296C216.703 309.687 216.827 310.132 216.83 310.585C216.834 311.039 216.717 311.486 216.491 311.88C216.266 312.274 215.94 312.601 215.546 312.828Z" fill="#E0E0E0"/>
<path d="M240.315 402.708C263.768 402.708 282.78 391.73 282.78 378.188C282.78 364.645 263.768 353.667 240.315 353.667C216.863 353.667 197.851 364.645 197.851 378.188C197.851 391.73 216.863 402.708 240.315 402.708Z" fill="#E0E0E0"/>
<path d="M332.163 392.291C340.34 392.291 346.968 388.462 346.968 383.738C346.968 379.015 340.34 375.186 332.163 375.186C323.987 375.186 317.358 379.015 317.358 383.738C317.358 388.462 323.987 392.291 332.163 392.291Z" fill="#E0E0E0"/>
<path d="M332.642 248.981L332.659 361.852L369.214 340.727V227.967L332.642 248.981Z" fill="#E6E6E6"/>
<path d="M270.558 325.999L332.659 361.852V249.084L270.575 213.342L270.558 325.999Z" fill="#EBEBEB"/>
<path d="M270.558 213.231L332.659 249.084L369.214 227.967L307.138 192.217L270.558 213.231Z" fill="#F5F5F5"/>
<path d="M277.836 254.507L325.022 281.756C325.228 281.874 325.461 281.936 325.699 281.935C325.936 281.935 326.17 281.873 326.376 281.754C326.582 281.635 326.753 281.465 326.872 281.26C326.992 281.054 327.056 280.821 327.057 280.584V256.645C327.054 256.053 326.894 255.473 326.593 254.964C326.293 254.455 325.863 254.034 325.347 253.745L278.238 226.599C278.031 226.481 277.797 226.419 277.559 226.419C277.32 226.42 277.086 226.483 276.88 226.603C276.674 226.722 276.503 226.894 276.384 227.1C276.265 227.307 276.202 227.541 276.202 227.779V251.607C276.197 252.191 276.345 252.766 276.632 253.275C276.919 253.784 277.334 254.209 277.836 254.507Z" fill="#FAFAFA"/>
<path d="M305.769 248.511C305.607 248.51 305.447 248.465 305.308 248.383L296.977 243.593C296.786 243.458 296.651 243.256 296.601 243.028C296.55 242.799 296.587 242.559 296.703 242.356C296.82 242.153 297.008 242 297.231 241.929C297.454 241.857 297.696 241.871 297.909 241.968L306.24 246.766C306.404 246.874 306.531 247.032 306.6 247.216C306.67 247.401 306.679 247.603 306.627 247.793C306.575 247.983 306.463 248.151 306.309 248.274C306.155 248.397 305.966 248.468 305.769 248.477V248.511Z" fill="#E0E0E0"/>
<path d="M277.836 287.931L325.022 315.171C325.228 315.289 325.461 315.351 325.699 315.351C325.936 315.351 326.17 315.288 326.376 315.17C326.582 315.051 326.753 314.881 326.872 314.675C326.992 314.47 327.056 314.237 327.057 313.999V290.052C327.053 289.461 326.892 288.881 326.592 288.372C326.292 287.863 325.862 287.442 325.347 287.152L278.238 260.066C278.032 259.948 277.798 259.886 277.561 259.886C277.323 259.886 277.09 259.949 276.884 260.067C276.678 260.186 276.507 260.356 276.387 260.562C276.268 260.767 276.204 261 276.202 261.238V285.065C276.204 285.644 276.355 286.211 276.641 286.713C276.928 287.216 277.339 287.635 277.836 287.931Z" fill="#FAFAFA"/>
<path d="M305.769 281.927C305.608 281.925 305.45 281.883 305.308 281.807L296.977 277.009C296.786 276.874 296.651 276.672 296.601 276.443C296.55 276.214 296.587 275.975 296.703 275.772C296.82 275.568 297.008 275.416 297.231 275.344C297.454 275.272 297.696 275.287 297.909 275.384L306.24 280.182C306.404 280.29 306.531 280.448 306.6 280.632C306.67 280.816 306.679 281.018 306.627 281.208C306.575 281.398 306.463 281.567 306.309 281.69C306.155 281.813 305.966 281.884 305.769 281.892V281.927Z" fill="#E0E0E0"/>
<path d="M277.836 321.346L325.022 348.587C325.228 348.705 325.461 348.767 325.699 348.766C325.936 348.766 326.17 348.704 326.376 348.585C326.582 348.467 326.753 348.296 326.872 348.091C326.992 347.886 327.056 347.653 327.057 347.415V323.467C327.053 322.876 326.893 322.297 326.592 321.787C326.292 321.278 325.862 320.857 325.347 320.568L278.238 293.422C278.032 293.303 277.798 293.241 277.561 293.242C277.323 293.242 277.09 293.305 276.884 293.423C276.678 293.542 276.507 293.712 276.387 293.917C276.268 294.123 276.204 294.356 276.202 294.593V318.43C276.195 319.016 276.342 319.595 276.629 320.107C276.915 320.619 277.332 321.046 277.836 321.346Z" fill="#FAFAFA"/>
<path d="M305.769 315.342C305.607 315.344 305.448 315.303 305.307 315.222L296.977 310.424C296.871 310.363 296.778 310.282 296.703 310.185C296.628 310.087 296.574 309.976 296.542 309.858C296.51 309.74 296.502 309.616 296.518 309.495C296.534 309.373 296.574 309.256 296.635 309.15C296.696 309.044 296.778 308.951 296.875 308.876C296.972 308.802 297.084 308.747 297.202 308.716C297.321 308.685 297.444 308.678 297.566 308.695C297.687 308.712 297.804 308.754 297.909 308.816L306.24 313.606C306.346 313.667 306.439 313.749 306.514 313.846C306.588 313.943 306.643 314.054 306.675 314.172C306.707 314.291 306.715 314.414 306.699 314.536C306.683 314.657 306.643 314.774 306.582 314.88C306.5 315.023 306.382 315.142 306.239 315.223C306.096 315.304 305.934 315.345 305.769 315.342Z" fill="#E0E0E0"/>
<path d="M309.378 135.324V165.49L335.507 180.568V150.402L309.378 135.324Z" fill="#FAFAFA"/>
<path d="M312.209 136.949L335.541 150.402V177.301L312.244 163.856V136.949M310.824 134.503L309.413 135.358V165.524L335.541 180.568L336.952 179.713V149.59L310.79 134.503H310.824Z" fill="#E0E0E0"/>
<path d="M310.79 137.762L334.087 151.215V178.113L310.79 164.66V137.762ZM309.378 135.315V165.481L335.541 180.568V150.402L309.378 135.324V135.315Z" fill="#EBEBEB"/>
<path d="M313.21 158.587L332.975 169.997L327.134 154.807L323.097 159.605L318.958 153.721L313.21 158.587Z" fill="#E0E0E0"/>
<path d="M320.069 149.111C320.103 149.737 320.284 150.346 320.598 150.888C320.911 151.431 321.349 151.891 321.874 152.233C322.866 152.806 323.679 152.335 323.679 151.189C323.644 150.564 323.462 149.956 323.149 149.413C322.835 148.871 322.399 148.41 321.874 148.068C320.873 147.495 320.069 147.956 320.069 149.111Z" fill="#E0E0E0"/>
<path d="M343.333 171.836V195.869L364.142 207.886V183.852L343.333 171.836Z" fill="#FAFAFA"/>
<path d="M345.582 173.144L364.142 183.852V205.328L345.582 194.612V173.23M344.453 171.271L343.333 171.921V195.954L364.142 207.894L365.271 207.244V183.211L344.453 171.237V171.271Z" fill="#E0E0E0"/>
<path d="M344.453 173.794L363.013 184.502V205.936L344.453 195.219V173.794ZM343.333 171.836V195.869L364.142 207.894V183.861L343.333 171.887V171.836Z" fill="#EBEBEB"/>
<path d="M346.386 190.369L362.123 199.461L357.479 187.359L354.255 191.191L350.962 186.495L346.386 190.369Z" fill="#E0E0E0"/>
<path d="M351.843 182.826C351.87 183.324 352.015 183.809 352.264 184.242C352.514 184.674 352.862 185.042 353.28 185.315C354.075 185.768 354.717 185.4 354.717 184.46C354.69 183.961 354.547 183.475 354.297 183.043C354.047 182.61 353.699 182.243 353.28 181.971C352.484 181.534 351.843 181.911 351.843 182.826Z" fill="#E0E0E0"/>
<path d="M333.035 361.946C333.035 361.946 323.935 353.06 329.118 338.178C332.018 329.839 341.631 323.715 347.079 323.134C345.266 325.288 343.821 327.727 342.803 330.352L335.909 334.937L342.247 332.952L340.895 338.375C340.895 338.375 335.003 341.941 334.13 342.72L340.485 341.06C340.485 341.06 340.023 356.421 333.035 361.946Z" fill="#9616FF"/>
<path opacity="0.4" d="M333.035 361.946C333.035 361.946 323.935 353.06 329.118 338.178C332.018 329.839 341.631 323.715 347.079 323.134C345.266 325.288 343.821 327.727 342.803 330.352L335.909 334.937L342.247 332.952L340.895 338.375C340.895 338.375 335.003 341.941 334.13 342.72L340.485 341.06C340.485 341.06 340.023 356.421 333.035 361.946Z" fill="black"/>
<path d="M333.035 361.946C333.035 361.946 328.323 343.352 335.293 332.508C335.293 332.508 327.126 342.078 333.035 361.946Z" fill="white"/>
<path d="M343.444 364.461L332.326 364.324H332.214L321.096 364.461C321.096 364.461 320.968 378.145 325.193 383.756C326.364 385.244 329.093 386.321 332.283 386.321C335.473 386.321 338.218 385.269 339.382 383.756C343.572 378.162 343.444 364.461 343.444 364.461Z" fill="#37474F"/>
<path d="M343.444 364.461C343.444 367.779 338.441 370.448 332.257 370.448C326.074 370.448 321.07 367.753 321.07 364.461C321.07 361.168 326.082 358.474 332.257 358.474C338.432 358.474 343.444 361.142 343.444 364.461Z" fill="#455A64"/>
<path d="M332.257 362.87C336.106 362.87 339.364 364.101 340.519 365.812C340.8 365.417 340.955 364.946 340.964 364.461C340.964 362.091 337.064 360.184 332.257 360.184C327.45 360.184 323.55 362.109 323.55 364.461C323.558 364.947 323.716 365.419 324.004 365.812C325.15 364.101 328.408 362.87 332.257 362.87Z" fill="#263238"/>
<path d="M332.257 362.87C328.408 362.87 325.15 364.101 324.004 365.812C325.15 367.523 328.408 368.763 332.257 368.763C336.106 368.763 339.365 367.523 340.519 365.812C339.365 364.101 336.106 362.87 332.257 362.87Z" fill="#E0E0E0"/>
<path d="M332.394 366.556C332.394 366.556 328.118 366.394 324.389 360.663C322.858 358.303 322.122 357.062 322.122 357.062L328.109 356.609L321.378 354.899L318.196 350.032L323.781 349.613C321.479 348.81 319.081 348.313 316.648 348.133C316.648 348.133 311.517 339.033 309.986 337.733C313.897 337.971 317.72 338.993 321.228 340.737C324.737 342.481 327.859 344.912 330.41 347.885C338.851 357.901 333.651 366.813 332.394 366.556Z" fill="#9616FF"/>
<path d="M332.394 366.556C332.394 366.556 335.097 350.306 317.854 340.539C317.88 340.539 335.747 349.126 332.394 366.556Z" fill="white"/>
<path d="M332.394 366.556C332.394 366.556 336.303 366.813 340.177 361.997C341.776 360.005 342.555 358.953 342.555 358.953L337.175 357.986L343.41 357.131L346.737 353.034L341.734 352.136C343.887 351.627 346.099 351.406 348.311 351.478C348.311 351.478 353.819 343.78 355.298 342.72C351.764 342.562 348.233 343.113 344.915 344.341C341.597 345.569 338.558 347.449 335.978 349.87C327.391 358.14 331.265 366.667 332.394 366.556Z" fill="#9616FF"/>
<path opacity="0.2" d="M332.394 366.556C332.394 366.556 336.303 366.813 340.177 361.997C341.776 360.005 342.555 358.953 342.555 358.953L337.175 357.986L343.41 357.131L346.737 353.034L341.734 352.136C343.887 351.627 346.099 351.406 348.311 351.478C348.311 351.478 353.819 343.78 355.298 342.72C351.764 342.562 348.233 343.113 344.915 344.341C341.597 345.569 338.558 347.449 335.978 349.87C327.391 358.14 331.265 366.667 332.394 366.556Z" fill="black"/>
<path d="M332.394 366.556C332.394 366.556 331.487 351.649 347.943 344.447C347.943 344.447 331.017 350.511 332.394 366.556Z" fill="white"/>
<path d="M162.596 159.015L158.705 157.433L158.311 157.27H158.269C157.571 157.018 156.827 156.922 156.088 156.989C155.349 157.055 154.634 157.283 153.992 157.655L20.4498 234.733C17.6433 236.35 15.3127 238.678 13.6925 241.483C12.0724 244.288 11.2201 247.47 11.2213 250.709V366.975C11.222 368.211 11.548 369.425 12.1664 370.494C12.7849 371.564 13.6741 372.452 14.7446 373.069C15.8151 373.687 17.0292 374.011 18.2649 374.01C19.5006 374.009 20.7143 373.683 21.784 373.065L155.455 295.893C157.362 294.791 158.946 293.206 160.046 291.298C161.147 289.39 161.725 287.225 161.724 285.023V162.137C161.727 161.257 161.503 160.391 161.074 159.622L162.596 159.015Z" fill="#9616FF"/>
<path opacity="0.3" d="M162.596 159.015L158.705 157.433L158.311 157.27H158.269C157.571 157.018 156.827 156.922 156.088 156.989C155.349 157.055 154.634 157.283 153.992 157.655L20.4498 234.733C17.6433 236.35 15.3127 238.678 13.6925 241.483C12.0724 244.288 11.2201 247.47 11.2213 250.709V366.975C11.222 368.211 11.548 369.425 12.1664 370.494C12.7849 371.564 13.6741 372.452 14.7446 373.069C15.8151 373.687 17.0292 374.011 18.2649 374.01C19.5006 374.009 20.7143 373.683 21.784 373.065L155.455 295.893C157.362 294.791 158.946 293.206 160.046 291.298C161.147 289.39 161.725 287.225 161.724 285.023V162.137C161.727 161.257 161.503 160.391 161.074 159.622L162.596 159.015Z" fill="black"/>
<path d="M165.265 163.539V286.468C165.266 288.671 164.687 290.835 163.584 292.742C162.482 294.649 160.896 296.232 158.987 297.33L25.3161 374.51C24.2454 375.126 23.0315 375.45 21.7961 375.449C20.5607 375.448 19.3472 375.123 18.2773 374.505C17.2074 373.888 16.3187 372.999 15.7002 371.93C15.0817 370.861 14.7552 369.647 14.7535 368.412V252.095C14.7542 248.907 15.5823 245.774 17.1568 243.003C18.3493 240.947 20.0712 239.249 22.1431 238.085L160.21 158.365C161.549 158.407 162.82 158.964 163.759 159.92C164.697 160.876 165.231 162.157 165.248 163.497L165.265 163.539Z" fill="#9616FF"/>
<path opacity="0.1" d="M165.265 163.539V286.468C165.266 288.671 164.687 290.835 163.584 292.742C162.482 294.649 160.896 296.232 158.987 297.33L25.3161 374.51C24.2454 375.126 23.0315 375.45 21.7961 375.449C20.5607 375.448 19.3472 375.123 18.2773 374.505C17.2074 373.888 16.3187 372.999 15.7002 371.93C15.0817 370.861 14.7552 369.647 14.7535 368.412V252.095C14.7542 248.907 15.5823 245.774 17.1568 243.003C18.3493 240.947 20.0712 239.249 22.1431 238.085L160.21 158.365C161.549 158.407 162.82 158.964 163.759 159.92C164.697 160.876 165.231 162.157 165.248 163.497L165.265 163.539Z" fill="black"/>
<path d="M158.987 297.33L25.3162 374.51C24.2815 375.115 23.1082 375.444 21.9097 375.463C20.7111 375.483 19.5278 375.193 18.474 374.621L98.2882 254.498L165.265 286.46C165.265 288.663 164.685 290.828 163.583 292.736C162.481 294.645 160.896 296.229 158.987 297.33Z" fill="#9616FF"/>
<path opacity="0.2" d="M158.987 297.33L25.3162 374.51C24.2815 375.115 23.1082 375.444 21.9097 375.463C20.7111 375.483 19.5278 375.193 18.474 374.621L98.2882 254.498L165.265 286.46C165.265 288.663 164.685 290.828 163.583 292.736C162.481 294.645 160.896 296.229 158.987 297.33Z" fill="black"/>
<path d="M163.015 159.28L108.509 273.297C107.435 275.537 105.911 277.531 104.031 279.155C102.151 280.779 99.9558 281.997 97.5833 282.733C95.2109 283.469 92.712 283.708 90.2431 283.434C87.7742 283.159 85.3885 282.379 83.2353 281.14L17.1568 243.029C18.2847 241.026 19.93 239.363 21.9207 238.213L160.21 158.365C161.215 158.389 162.19 158.707 163.015 159.28Z" fill="#9616FF"/>
<path d="M30.8757 206.423L70.0301 183.81V155.782L41.5752 171.468C38.3342 173.252 35.6316 175.873 33.7496 179.058C31.8675 182.243 30.875 185.875 30.8757 189.574V206.423Z" fill="#9616FF"/>
<path opacity="0.5" d="M30.8757 206.423L70.0301 183.81V155.782L41.5752 171.468C38.3342 173.252 35.6316 175.873 33.7496 179.058C31.8675 182.243 30.875 185.875 30.8757 189.574V206.423Z" fill="white"/>
<path d="M192.711 97.88L189.127 95.853C184.576 93.2213 179.409 91.8407 174.152 91.8512C168.894 91.8617 163.733 93.263 159.192 95.9129L47.2113 161.153C42.2406 164.048 38.1162 168.196 35.2497 173.183C32.3832 178.17 30.875 183.822 30.8756 189.574C30.8752 186.619 31.6551 183.716 33.1365 181.159C34.6179 178.603 36.7483 176.482 39.312 175.013C41.8758 173.544 44.7822 172.777 47.7371 172.792C50.6921 172.806 53.5909 173.6 56.1404 175.094L60.8273 177.84C65.7071 180.696 69.7547 184.779 72.568 189.684C75.3812 194.589 76.8622 200.144 76.8637 205.799V372.184L69.2261 391.573L83.569 382.84L198.869 315.941C202.964 313.566 206.363 310.157 208.724 306.054C211.085 301.952 212.326 297.3 212.322 292.566V131.911C212.321 125.018 210.509 118.246 207.067 112.273C203.625 106.301 198.674 101.337 192.711 97.88Z" fill="#9616FF"/>
<path opacity="0.7" d="M192.711 97.88L189.127 95.853C184.576 93.2213 179.409 91.8407 174.152 91.8512C168.894 91.8617 163.733 93.263 159.192 95.9129L47.2113 161.153C42.2406 164.048 38.1162 168.196 35.2497 173.183C32.3832 178.17 30.875 183.822 30.8756 189.574C30.8752 186.619 31.6551 183.716 33.1365 181.159C34.6179 178.603 36.7483 176.482 39.312 175.013C41.8758 173.544 44.7822 172.777 47.7371 172.792C50.6921 172.806 53.5909 173.6 56.1404 175.094L60.8273 177.84C65.7071 180.696 69.7547 184.779 72.568 189.684C75.3812 194.589 76.8622 200.144 76.8637 205.799V372.184L69.2261 391.573L83.569 382.84L198.869 315.941C202.964 313.566 206.363 310.157 208.724 306.054C211.085 301.952 212.326 297.3 212.322 292.566V131.911C212.321 125.018 210.509 118.246 207.067 112.273C203.625 106.301 198.674 101.337 192.711 97.88Z" fill="white"/>
<path d="M35.5198 376.452C35.5198 376.452 43.5509 388.194 56.457 392.086C70.3381 396.268 76.8638 387.066 76.8638 374.861V352.786L35.5198 376.452Z" fill="#9616FF"/>
<path opacity="0.5" d="M35.5198 376.452C35.5198 376.452 43.5509 388.194 56.457 392.086C70.3381 396.268 76.8638 387.066 76.8638 374.861V352.786L35.5198 376.452Z" fill="white"/>
<path d="M101.812 258.355C101.535 258.351 101.266 258.257 101.048 258.086C100.829 257.915 100.672 257.678 100.6 257.41C100.529 257.142 100.546 256.858 100.651 256.601C100.755 256.344 100.941 256.128 101.179 255.986L186.707 206.585C186.998 206.418 187.344 206.372 187.669 206.46C187.994 206.547 188.271 206.76 188.439 207.052C188.607 207.343 188.652 207.689 188.564 208.014C188.477 208.339 188.264 208.616 187.973 208.784L102.445 258.184C102.252 258.294 102.034 258.353 101.812 258.355Z" fill="white"/>
<path d="M101.812 277.3C101.534 277.299 101.264 277.207 101.043 277.037C100.823 276.868 100.664 276.63 100.592 276.362C100.52 276.093 100.538 275.808 100.645 275.551C100.751 275.294 100.939 275.079 101.179 274.939L186.707 225.53C186.998 225.362 187.344 225.317 187.669 225.404C187.994 225.492 188.271 225.704 188.439 225.996C188.606 226.287 188.652 226.634 188.564 226.958C188.477 227.283 188.264 227.56 187.972 227.728L102.445 277.171C102.248 277.267 102.031 277.311 101.812 277.3Z" fill="white"/>
<path d="M101.812 296.235C101.534 296.235 101.264 296.143 101.043 295.973C100.823 295.804 100.664 295.566 100.592 295.297C100.52 295.029 100.538 294.744 100.645 294.487C100.751 294.229 100.939 294.014 101.179 293.875L186.707 244.474C186.996 244.324 187.332 244.291 187.645 244.382C187.958 244.473 188.223 244.682 188.386 244.964C188.549 245.246 188.597 245.58 188.52 245.897C188.443 246.213 188.247 246.488 187.972 246.664L102.445 296.064C102.252 296.174 102.034 296.233 101.812 296.235Z" fill="white"/>
<path d="M101.812 315.171C101.534 315.171 101.264 315.078 101.043 314.909C100.823 314.739 100.664 314.502 100.592 314.233C100.52 313.964 100.538 313.679 100.645 313.422C100.751 313.165 100.939 312.95 101.179 312.811L186.707 263.41C186.996 263.26 187.332 263.227 187.645 263.318C187.958 263.409 188.223 263.617 188.386 263.899C188.549 264.182 188.597 264.516 188.52 264.832C188.443 265.149 188.247 265.424 187.972 265.599L102.445 315C102.254 315.114 102.035 315.173 101.812 315.171Z" fill="white"/>
<path d="M101.812 334.107C101.534 334.106 101.264 334.014 101.043 333.845C100.823 333.675 100.664 333.438 100.592 333.169C100.52 332.9 100.538 332.615 100.645 332.358C100.751 332.101 100.939 331.886 101.179 331.746L186.707 282.346C186.996 282.195 187.332 282.162 187.645 282.254C187.958 282.345 188.223 282.553 188.386 282.835C188.549 283.117 188.597 283.452 188.52 283.768C188.443 284.085 188.247 284.36 187.972 284.535L102.445 333.936C102.254 334.05 102.035 334.109 101.812 334.107Z" fill="white"/>
<path d="M157.978 320.611C157.756 320.612 157.537 320.554 157.345 320.443C157.152 320.332 156.993 320.171 156.883 319.978C156.721 319.689 156.679 319.348 156.765 319.028C156.851 318.708 157.06 318.435 157.345 318.267L186.724 301.281C187.013 301.131 187.349 301.098 187.662 301.189C187.975 301.281 188.24 301.489 188.404 301.771C188.567 302.053 188.615 302.387 188.538 302.704C188.46 303.021 188.264 303.295 187.99 303.471L158.611 320.448C158.417 320.556 158.199 320.612 157.978 320.611Z" fill="white"/>
<path d="M161.374 187.06L136.724 201.291V189.146C136.724 180.705 141.856 170.895 148.194 167.234L149.904 166.251C156.233 162.59 161.374 166.473 161.374 174.915V187.06Z" fill="#9616FF"/>
<path d="M167.112 191.088L130.986 211.948L136.725 198.657L161.374 184.425L167.112 191.088Z" fill="#9616FF"/>
<path d="M149.092 170.749C148.023 171.365 147.159 170.869 147.159 169.638V164.908C147.196 164.238 147.39 163.586 147.726 163.005C148.062 162.424 148.53 161.93 149.092 161.564C150.152 160.948 151.016 161.444 151.016 162.676V167.414C150.979 168.082 150.785 168.731 150.451 169.311C150.116 169.89 149.651 170.383 149.092 170.749Z" fill="#9616FF"/>
<path d="M144.944 205.67C145.046 208.125 146.842 209.091 149.049 207.817C150.205 207.061 151.175 206.052 151.884 204.867C152.594 203.682 153.025 202.351 153.146 200.975L144.944 205.67Z" fill="#9616FF"/>
<path d="M270.558 168.688C280.491 168.688 288.544 160.635 288.544 150.702C288.544 140.768 280.491 132.715 270.558 132.715C260.624 132.715 252.571 140.768 252.571 150.702C252.571 160.635 260.624 168.688 270.558 168.688Z" fill="#9616FF"/>
<path d="M267.35 164.686C267.35 164.686 268.958 170.399 262.45 175.701C262.45 175.701 272.473 174.692 273.021 165.164L267.35 164.686Z" fill="#9616FF"/>
<path d="M272.328 152.361H268.462L267.496 143.081H273.294L272.328 152.361ZM270.395 158.348C270.039 158.372 269.682 158.325 269.345 158.208C269.008 158.091 268.698 157.907 268.434 157.667C268.169 157.428 267.956 157.137 267.807 156.813C267.657 156.489 267.575 156.139 267.564 155.782C267.641 155.085 267.972 154.441 268.495 153.973C269.017 153.505 269.694 153.246 270.395 153.246C271.096 153.246 271.773 153.505 272.296 153.973C272.818 154.441 273.149 155.085 273.226 155.782C273.213 156.137 273.129 156.486 272.979 156.808C272.828 157.13 272.614 157.418 272.35 157.656C272.086 157.894 271.777 158.076 271.441 158.192C271.105 158.308 270.75 158.355 270.395 158.331V158.348Z" fill="white"/>
<path d="M235.047 220.227C233.195 220.084 231.337 220.399 229.636 221.145C227.936 221.891 226.445 223.044 225.297 224.503C221.491 229.515 213.434 241.369 213.434 241.369C213.434 241.369 210.064 237.632 207.858 235.006C205.651 232.381 203.581 230.157 203.581 230.157C203.291 228.744 203.074 227.316 202.931 225.88C202.743 223.845 202.469 222.459 200.981 221.065C199.493 219.671 198.355 218.363 198.236 217.302C198.116 216.241 197.38 215.181 196.44 216.267C195.499 217.353 195.584 220.689 197.551 222.913C197.551 222.913 194.036 221.279 192.42 219.363C190.803 217.447 188.716 214.112 187.793 215.036C186.869 215.959 185.099 225.906 187.793 228.121C190.487 230.336 197.15 234.108 197.15 234.108C197.15 234.108 205.856 255.422 211.98 255.422C218.104 255.422 228.23 239.667 228.23 239.667L235.047 220.227Z" fill="#FFA8A7"/>
<path d="M224.176 331.498L226.066 360.415C226.066 360.415 227.777 363.477 231.07 363.477L234.063 360.21C234.022 356.342 234.346 352.479 235.03 348.672C236.141 342.831 238.297 334.286 238.921 329.352L224.176 331.498Z" fill="#FFA8A7"/>
<path d="M225.878 266.172C225.878 266.172 224.373 275.897 223.629 285.356C223.039 292.9 222.654 303.36 222.517 307.285C222.484 308.312 222.507 309.34 222.585 310.364L224.176 331.498C224.176 331.498 233.524 335.604 238.938 329.352C238.938 329.352 239.597 323.296 238.656 319.088C238.105 316.432 238.172 313.684 238.853 311.057L244.711 287.52V265.967L225.878 266.172Z" fill="#37474F"/>
<path d="M230.42 274.238C230.815 275.966 231.677 277.553 232.91 278.827C234.143 280.101 235.701 281.013 237.416 281.465L240.914 302.761L246.046 284.099V274.238H230.42Z" fill="#263238"/>
<path d="M248.603 335.809L254.513 368.403H260.902C260.902 368.403 263.322 340.941 263.194 333.448L248.603 335.809Z" fill="#FFA8A7"/>
<path d="M228.863 265.959C228.863 265.959 227.614 278.54 238.87 279.643L244.711 317.113L248.603 335.8C248.603 335.8 257.72 341.745 263.194 333.44C263.194 333.44 263.75 324.032 261.483 317.549C260.892 315.865 260.648 314.078 260.765 312.297C261.398 303.112 263.142 276.162 262.287 270.192L256.66 262.828L228.863 265.959Z" fill="#37474F"/>
<path d="M249.356 221.578H255.069L258.892 240.66L256.377 248.827C255.846 250.521 255.968 252.351 256.719 253.959C258.43 257.688 261.603 264.975 262.296 270.209C260.696 270.326 259.095 270.007 257.662 269.286C256.23 268.564 255.02 267.468 254.162 266.113C254.162 266.113 249.364 272.433 237.69 272.433C232.028 272.433 227.426 268.268 225.878 266.181L227.974 256.722C228.147 255.953 228.211 255.164 228.162 254.378C228.051 252.42 227.837 248.391 227.888 245.329C227.888 245.329 222.466 243.174 223.86 236.503C225.254 229.832 235.047 220.253 235.047 220.253L239.246 220.415L249.356 221.578Z" fill="#9616FF"/>
<path d="M235.577 184.802C235.577 184.802 228.649 182.398 226.956 189.488C225.262 196.579 230.48 203.464 222.68 205.824C222.68 205.824 227.281 209.656 231.335 202.497L234.756 217.037C234.756 217.037 234.756 217.832 233.541 218.44C233.541 218.44 253.213 222.819 257.002 213C257.524 213.565 257.88 214.263 258.031 215.018C258.182 215.772 258.122 216.554 257.857 217.276C257.857 217.276 263.664 214.924 262.031 207.406C262.031 207.406 266.624 207.278 267.718 203.541C267.718 203.541 260.371 203.891 260.414 195.783C260.466 186.418 255.539 187.778 255.539 187.778C255.539 187.778 249.509 178.815 235.577 184.802Z" fill="#455A64"/>
<path d="M239.246 214.138V220.39C239.246 220.39 232.772 227.591 239.084 228.164C245.396 228.737 249.347 221.578 249.347 221.578V208.356L239.246 214.138Z" fill="#FFA8A7"/>
<path d="M249.244 206.269V206.628C246.995 215.523 241.136 217.456 239.246 217.909L239.178 204.148L248.962 204.097L249.244 206.269Z" fill="#F28F8F"/>
<path d="M239.888 186.512C236.15 186.82 228.384 189.548 228.273 199.393C228.162 209.237 229.659 216.746 234.765 217.054C239.871 217.362 251.271 212.778 251.802 199.949C252.332 187.119 243.523 186.17 239.888 186.512Z" fill="#FFA8A7"/>
<path d="M235.158 203.301L235.252 209.083L231.848 208.099L235.158 203.301Z" fill="#F28F8F"/>
<path d="M240.238 203.147C240.243 203.381 240.179 203.612 240.053 203.809C239.926 204.006 239.744 204.161 239.53 204.255C239.315 204.348 239.077 204.376 238.847 204.334C238.617 204.292 238.404 204.183 238.236 204.02C238.068 203.856 237.952 203.647 237.904 203.418C237.855 203.189 237.876 202.951 237.963 202.733C238.05 202.516 238.2 202.329 238.394 202.198C238.587 202.066 238.815 201.994 239.049 201.993C239.204 201.989 239.357 202.016 239.5 202.073C239.644 202.129 239.775 202.214 239.886 202.321C239.996 202.429 240.084 202.557 240.145 202.699C240.205 202.841 240.237 202.993 240.238 203.147Z" fill="#263238"/>
<path d="M232.481 202.437C232.484 202.592 232.457 202.746 232.401 202.89C232.344 203.034 232.26 203.165 232.153 203.276C232.046 203.388 231.917 203.477 231.775 203.538C231.634 203.6 231.481 203.632 231.326 203.635C231.093 203.64 230.863 203.575 230.666 203.449C230.468 203.324 230.313 203.142 230.219 202.928C230.126 202.714 230.098 202.477 230.139 202.247C230.18 202.016 230.289 201.804 230.451 201.635C230.613 201.467 230.822 201.351 231.05 201.301C231.279 201.252 231.517 201.271 231.734 201.357C231.952 201.443 232.139 201.591 232.272 201.784C232.405 201.976 232.477 202.204 232.481 202.437Z" fill="#263238"/>
<path d="M238.339 210.956C237.058 211.283 235.796 211.683 234.559 212.153C234.559 212.153 234.209 210.143 235.876 209.682C236.371 209.577 236.886 209.647 237.335 209.879C237.784 210.111 238.139 210.492 238.339 210.956Z" fill="#F28F8F"/>
<path d="M232.053 198.084L229.77 199.478C229.77 199.478 230.625 200.385 231.532 199.82C231.783 199.617 231.967 199.342 232.06 199.033C232.153 198.723 232.151 198.392 232.053 198.084Z" fill="#263238"/>
<path d="M245.892 203.113C245.892 203.113 245.806 206.756 248.192 206.756H252.871V198.862C252.871 190.002 246.148 180.748 231.848 188.069C231.848 188.069 231.01 200.393 245.892 203.113Z" fill="#455A64"/>
<path d="M230.129 206.56C227.905 206.56 226.092 205.02 226.092 203.139C226.092 201.257 227.905 199.718 230.129 199.718C232.353 199.718 234.166 201.257 234.166 203.139C234.166 205.02 232.353 206.56 230.129 206.56ZM230.129 200.376C228.29 200.376 226.793 201.608 226.793 203.113C226.793 204.618 228.29 205.858 230.129 205.858C231.968 205.858 233.464 204.627 233.464 203.113C233.464 201.599 231.968 200.376 230.129 200.376Z" fill="#9616FF"/>
<path d="M240.059 206.585C237.57 206.585 235.534 205.029 235.534 203.113C235.534 201.197 237.57 199.692 240.059 199.692C242.547 199.692 244.583 201.248 244.583 203.113C244.583 204.977 242.556 206.585 240.059 206.585ZM240.059 200.393C237.98 200.393 236.278 201.616 236.278 203.113C236.278 204.61 237.989 205.841 240.059 205.841C242.128 205.841 243.839 204.618 243.839 203.113C243.839 201.608 242.145 200.393 240.059 200.393Z" fill="#9616FF"/>
<path d="M235.911 202.745H233.815V203.489H235.911V202.745Z" fill="#9616FF"/>
<path d="M249.621 202.745H244.215V203.489H249.621V202.745Z" fill="#9616FF"/>
<path d="M248.175 206.278C248.146 205.375 248.321 204.477 248.688 203.652C248.867 203.138 249.192 202.688 249.624 202.356C250.056 202.025 250.575 201.827 251.117 201.787C253.906 201.745 254.248 204.43 254.205 205.379C254.077 207.885 252.024 210.571 248.218 210.631L248.175 206.278Z" fill="#FFA8A7"/>
<path d="M255.069 221.578C255.069 221.578 248.552 237.161 258.892 240.66L261.158 235.819C261.158 235.819 280.077 218.491 284.704 214.693C289.331 210.896 283.395 205.285 277.656 200.025C271.918 194.766 266.162 189.677 266.162 189.677L263.288 184.588C262.972 184.032 262.542 183.55 262.026 183.172C261.51 182.795 260.92 182.531 260.294 182.398C257.284 181.774 251.613 180.688 248.552 180.867C244.275 181.098 250.732 186.427 251.819 186.427C252.797 186.456 253.752 186.735 254.592 187.238C255.432 187.741 256.129 188.451 256.617 189.3C257.917 191.618 258.148 195.792 262.296 195.604L271.909 209.964L255.069 221.578Z" fill="#FFA8A7"/>
<path d="M271.909 209.964L275.245 214.232L270.045 211.255L271.909 209.964Z" fill="#F28F8F"/>
<path d="M213.434 241.378L216.402 244.808L214.683 239.556L213.434 241.378Z" fill="#F28F8F"/>
<path opacity="0.2" d="M239.067 245.637C239.067 245.637 247.619 246.33 250.271 238.205C250.271 238.205 250.373 248.562 239.067 245.637Z" fill="black"/>
<path d="M225.254 361.664C225.254 361.664 224.065 357.935 225.904 357.738C227.743 357.541 230.993 358.516 231.318 359.491C231.516 360.136 231.597 360.811 231.557 361.484C232.454 361.181 233.304 360.752 234.08 360.21V358.833C234.08 358.833 235.996 359.021 236.142 360.458C236.287 361.895 236.313 363.648 236.372 365.282C236.484 368.583 236.971 370.79 233.216 371.765C230.539 372.437 228.122 373.89 226.272 375.938C224.988 377.293 223.39 378.311 221.619 378.9C219.848 379.489 217.959 379.632 216.12 379.317C210.466 378.53 210.791 373.757 212.784 372.227C214.699 370.816 216.747 369.596 218.899 368.583L225.254 361.664Z" fill="#9616FF"/>
<path d="M223.235 372.209C223.15 372.212 223.067 372.189 222.994 372.145C222.921 372.102 222.862 372.038 222.825 371.961C221.918 370.501 220.475 369.454 218.805 369.045C218.744 369.032 218.687 369.007 218.636 368.971C218.585 368.935 218.541 368.89 218.508 368.838C218.474 368.785 218.452 368.727 218.441 368.665C218.43 368.604 218.432 368.541 218.446 368.48C218.459 368.421 218.484 368.364 218.519 368.314C218.554 368.264 218.599 368.221 218.651 368.189C218.702 368.156 218.76 368.134 218.82 368.124C218.881 368.114 218.942 368.116 219.002 368.13C219.965 368.362 220.871 368.784 221.669 369.372C222.466 369.959 223.139 370.7 223.646 371.551C223.685 371.622 223.704 371.701 223.703 371.782C223.701 371.863 223.679 371.942 223.637 372.011C223.596 372.08 223.537 372.137 223.466 372.177C223.396 372.216 223.316 372.236 223.235 372.235V372.209Z" fill="#FAFAFA"/>
<path d="M225.399 369.9C225.314 369.902 225.23 369.88 225.158 369.836C225.085 369.792 225.026 369.728 224.989 369.652C224.081 368.192 222.638 367.145 220.969 366.736C220.848 366.709 220.742 366.636 220.675 366.531C220.608 366.427 220.584 366.301 220.61 366.18C220.622 366.119 220.646 366.062 220.681 366.011C220.715 365.96 220.76 365.916 220.812 365.883C220.864 365.849 220.922 365.826 220.982 365.816C221.043 365.805 221.105 365.807 221.166 365.82C222.129 366.052 223.036 366.473 223.834 367.061C224.632 367.649 225.303 368.39 225.81 369.242C225.868 369.351 225.88 369.478 225.845 369.597C225.81 369.715 225.73 369.815 225.622 369.874C225.55 369.899 225.474 369.907 225.399 369.9Z" fill="#FAFAFA"/>
<path d="M227.563 367.591C227.479 367.591 227.395 367.568 227.323 367.524C227.251 367.481 227.192 367.418 227.153 367.343C226.241 365.887 224.8 364.842 223.133 364.426C223.013 364.398 222.91 364.324 222.844 364.22C222.779 364.116 222.756 363.99 222.782 363.87C222.793 363.81 222.816 363.753 222.85 363.702C222.884 363.651 222.928 363.608 222.979 363.574C223.03 363.54 223.088 363.518 223.148 363.507C223.208 363.496 223.27 363.497 223.329 363.511C224.294 363.743 225.202 364.165 226.001 364.753C226.8 365.34 227.473 366.081 227.982 366.932C228.04 367.042 228.051 367.171 228.014 367.289C227.977 367.408 227.895 367.507 227.785 367.565C227.714 367.591 227.638 367.599 227.563 367.591Z" fill="#FAFAFA"/>
<path d="M254.513 368.403C254.443 368.038 254.459 367.662 254.558 367.304C254.658 366.946 254.839 366.615 255.087 366.339C255.336 366.062 255.645 365.847 255.99 365.71C256.336 365.572 256.708 365.516 257.079 365.547C260.072 365.547 262.21 365.632 261.945 367.856V369.447C261.945 369.447 261.945 377.375 262.544 379.941C263.142 382.507 264.614 390.632 258.507 391.821C252.4 393.01 250.177 387.801 251.288 382.866C251.978 380.085 252.396 377.244 252.537 374.382C252.674 372.577 251.981 365.974 253.965 365.547L254.513 368.403Z" fill="#9616FF"/>
<path d="M260.106 378.222C260.027 378.22 259.95 378.196 259.884 378.154C258.333 377.41 256.552 377.302 254.923 377.854C254.866 377.876 254.805 377.886 254.744 377.884C254.683 377.882 254.622 377.868 254.567 377.843C254.511 377.817 254.461 377.781 254.419 377.736C254.378 377.691 254.346 377.638 254.325 377.58C254.303 377.523 254.292 377.461 254.294 377.399C254.296 377.337 254.31 377.276 254.336 377.22C254.361 377.164 254.397 377.113 254.442 377.07C254.487 377.028 254.54 376.995 254.598 376.973C255.533 376.652 256.522 376.519 257.509 376.582C258.495 376.645 259.46 376.903 260.346 377.341C260.453 377.404 260.532 377.506 260.564 377.626C260.596 377.747 260.579 377.875 260.517 377.982C260.477 378.056 260.417 378.117 260.345 378.159C260.272 378.201 260.19 378.223 260.106 378.222Z" fill="#FAFAFA"/>
<path d="M260.431 374.673C260.351 374.669 260.272 374.648 260.2 374.613C258.654 373.864 256.875 373.753 255.248 374.305C255.19 374.336 255.126 374.355 255.061 374.36C254.995 374.365 254.929 374.356 254.867 374.333C254.805 374.31 254.748 374.274 254.702 374.228C254.655 374.181 254.618 374.125 254.595 374.064C254.571 374.002 254.561 373.936 254.566 373.87C254.57 373.804 254.588 373.74 254.619 373.682C254.65 373.624 254.694 373.573 254.746 373.533C254.799 373.493 254.859 373.464 254.923 373.449C255.856 373.124 256.844 372.988 257.83 373.051C258.816 373.115 259.779 373.375 260.662 373.817C260.716 373.847 260.763 373.887 260.801 373.934C260.84 373.982 260.868 374.037 260.884 374.096C260.901 374.155 260.906 374.217 260.899 374.277C260.891 374.338 260.872 374.397 260.842 374.45C260.799 374.52 260.738 374.577 260.666 374.616C260.594 374.655 260.513 374.674 260.431 374.673Z" fill="#FAFAFA"/>
<path d="M260.756 371.174C260.676 371.171 260.597 371.15 260.525 371.115C258.975 370.372 257.196 370.261 255.565 370.807C255.507 370.84 255.442 370.859 255.375 370.865C255.309 370.87 255.242 370.861 255.179 370.838C255.116 370.815 255.059 370.779 255.012 370.732C254.964 370.684 254.928 370.628 254.905 370.565C254.881 370.502 254.872 370.435 254.877 370.368C254.882 370.302 254.902 370.237 254.935 370.179C254.967 370.12 255.012 370.07 255.067 370.031C255.121 369.991 255.183 369.964 255.248 369.951C256.181 369.625 257.169 369.49 258.155 369.553C259.141 369.616 260.104 369.877 260.987 370.319C261.041 370.349 261.088 370.388 261.126 370.436C261.164 370.484 261.193 370.539 261.209 370.598C261.226 370.657 261.231 370.719 261.224 370.779C261.216 370.84 261.197 370.899 261.167 370.952C261.124 371.022 261.063 371.079 260.991 371.118C260.919 371.157 260.838 371.176 260.756 371.174Z" fill="#FAFAFA"/>
<path d="M216.761 369.678C215.375 370.435 214.045 371.292 212.784 372.244C210.791 373.774 210.466 378.547 216.12 379.334C218.5 379.726 220.943 379.364 223.107 378.299C222.842 376.45 222.123 374.696 221.016 373.192C219.909 371.688 218.447 370.481 216.761 369.678Z" fill="white"/>
<path d="M233.216 371.038C230.539 371.71 228.122 373.163 226.272 375.211C224.988 376.566 223.39 377.584 221.619 378.173C219.848 378.762 217.959 378.905 216.119 378.59C212.955 378.153 211.663 376.46 211.492 374.784C211.33 376.665 212.493 378.812 216.119 379.317C217.959 379.632 219.848 379.489 221.619 378.9C223.39 378.311 224.988 377.293 226.272 375.938C228.122 373.89 230.539 372.437 233.216 371.765C236.176 371.003 236.501 369.464 236.449 367.232C236.39 369.07 235.842 370.396 233.216 371.038Z" fill="#37474F"/>
<path d="M263.091 383.063C261.547 381.49 259.447 380.587 257.243 380.55C255.039 380.514 252.909 381.345 251.314 382.866C250.202 387.801 252.426 393.01 258.533 391.821C262.963 390.923 263.416 386.458 263.091 383.063Z" fill="#F5F5F5"/>
<path d="M258.567 390.854C253.657 391.812 251.263 388.631 251.083 384.782C250.878 389.058 253.247 392.856 258.567 391.821C262.51 391.051 263.296 387.408 263.202 384.226C263.074 387.142 262.073 390.162 258.567 390.854Z" fill="#455A64"/>
</svg>
